<svg xmlns="http://www.w3.org/2000/svg"  viewBox="0 0 48 48" width="48px" height="48px" baseProfile="basic"><path fill="#52cccc" d="M41.25,34.25h3v2c-0.781,0.781-1.219,1.219-2,2H5.75c-0.781-0.781-1.219-1.219-2-2v-2h3	v-22.5c0.781-0.781,1.219-1.219,2-2h30.5c0.781,0.781,1.219,1.219,2,2L41.25,34.25z" opacity=".15"/><path fill="#52cccc" d="M39.125,33h-0.25V12.733l-0.608-0.608H9.733l-0.608,0.608V33h-0.25V12.63l0.755-0.755h28.74	l0.755,0.755V33z M45.5,35v1.768L42.768,39.5H5.232L2.5,36.768V35l1-1h3v-5l-1-1V11.232L8.232,8.5h31.535l2.732,2.732V25l-1,1v8h3	L45.5,35z M7,34.25h13.062l0.75,1h6.375l0.75-1H41V11.854L39.146,10H8.854L7,11.854V34.25z M4,36.146L5.854,38h36.293L44,36.146	V34.5H28.062l-0.75,1h-6.625l-0.545-1H4V36.146z"/><path fill="#52cccc" d="M38.116,33h-0.5v-2h0.5V33z M36.855,31h-0.5v2h0.5V31z M35.596,31h-0.5v2h0.5V31z M34.335,31h-0.5v2h0.5V31z M33.074,31h-0.5v2h0.5V31z M31.813,31h-0.5v2h0.5V31z M30.553,31h-0.5v2h0.5V31z M29.292,31h-0.5v2h0.5	V31z M28.032,31h-0.5v2h0.5V31z M26.771,31h-0.5v2h0.5V31z M25.511,31h-0.5v2h0.5V31z M24.25,31h-0.5v2h0.5V31z M22.989,31h-0.5v2	h0.5V31z M21.729,31h-0.5v2h0.5V31z M20.468,31h-0.5v2h0.5V31z M19.208,31h-0.5v2h0.5V31z M17.947,31h-0.5v2h0.5V31z M16.687,31	h-0.5v2h0.5V31z M15.426,31h-0.5v2h0.5V31z M14.165,31h-0.5v2h0.5V31z M12.904,31h-0.5v2h0.5V31z M11.645,31h-0.5v2h0.5V31z M10.384,31h-0.5v2h0.5V31z" opacity=".8"/><polygon fill="#52cccc" points="23,28 21,28 25,16 27,16" opacity=".8"/><polygon fill="#52cccc" points="28,18.5 31.5,22 28,25.5 29,27 34,22 29,17" opacity=".8"/><polygon fill="#52cccc" points="20,18.5 16.5,22 20,25.5 19,27 14,22 19,17" opacity=".8"/></svg>